<svg xmlns="http://www.w3.org/2000/svg" width="24" height="24" viewBox="0 0 24 24" fill="none">
  <g clip-path="url(#clip0_1455_9550)">
    <path d="M12 0C10.4308 0 9.23077 1.2 9.23077 2.76923V8.30769C9.23077 9.87692 10.4308 11.0769 12 11.0769H17.5385L21.2308 14.7692V11.0769C22.8 11.0769 24 9.87692 24 8.30769V2.76923C24 1.2 22.8 0 21.2308 0H12ZM15.8658 2.76923H17.4517L19.0098 8.30769H17.6252L17.2495 6.92308H15.8649L15.5197 8.30769H14.3077L15.8658 2.76923ZM16.6154 3.69231C16.5231 4.06154 16.4197 4.512 16.3265 4.78892L16.068 6H17.1637L16.9034 4.788C16.7197 4.512 16.6154 4.06154 16.6154 3.69231ZM2.76923 9.23077C1.2 9.23077 0 10.4308 0 12V17.5385C0 19.1077 1.2 20.3077 2.76923 20.3077V24L6.46154 20.3077H12C13.5692 20.3077 14.7692 19.1077 14.7692 17.5385V12H12C10.2462 12 8.856 10.8 8.39446 9.23077H2.76923ZM7.00985 11.9132C8.57908 11.9132 9.31754 13.2055 9.31754 14.6825C9.31754 15.9748 8.87354 16.7945 8.13508 17.1637C8.50431 17.3483 8.94185 17.4462 9.40339 17.5385L9.05815 18.4615C8.412 18.2769 7.74185 17.9889 7.09569 17.7111C7.00338 17.6188 6.84185 17.6252 6.74954 17.6252C5.64185 17.5329 4.61538 16.6154 4.61538 14.7692C4.61538 13.2 5.53292 11.9132 7.00985 11.9132ZM7.00985 12.9231C6.27138 12.9231 5.91323 13.7538 5.91323 14.7692C5.91323 15.8769 6.27138 16.6154 7.00985 16.6154C7.74831 16.6154 8.13415 15.7846 8.13415 14.7692C8.13415 13.7538 7.74831 12.9231 7.00985 12.9231Z" fill="#001111"/>
  </g>
  <defs>
    <clipPath id="clip0_1455_9550">
      <rect width="24" height="24" fill="white"/>
    </clipPath>
  </defs>
</svg>