<svg width="32" height="32" viewBox="0 0 32 32" fill="none" xmlns="http://www.w3.org/2000/svg">
<path d="M6.12456 11.096V14.944H10.7326V16.328H6.12456V21.2H4.41256V9.712H11.5326V11.096H6.12456ZM19.6257 13.072V21.2H18.6897C18.4764 21.2 18.3377 21.096 18.2737 20.888L18.1617 20.072C17.9857 20.2587 17.8017 20.4293 17.6097 20.584C17.4177 20.7387 17.2124 20.872 16.9937 20.984C16.775 21.0907 16.543 21.1733 16.2977 21.232C16.0524 21.296 15.7884 21.328 15.5057 21.328C15.0577 21.328 14.663 21.2533 14.3217 21.104C13.9857 20.9547 13.703 20.7467 13.4737 20.48C13.2444 20.208 13.071 19.8827 12.9537 19.504C12.8364 19.1253 12.7777 18.7067 12.7777 18.248V13.072H14.3457V18.248C14.3457 18.8293 14.479 19.2827 14.7457 19.608C15.0124 19.928 15.4204 20.088 15.9697 20.088C16.3697 20.088 16.743 19.9947 17.0897 19.808C17.4364 19.616 17.7617 19.3547 18.0657 19.024V13.072H19.6257ZM23.7232 9.392V21.2H22.1552V9.392H23.7232ZM27.8713 9.392V21.2H26.3033V9.392H27.8713Z" fill="#23A1AF"/>
<path d="M22.7998 28.8984C22.6833 28.9437 22.5541 28.9437 22.4377 28.8984L17.9538 27.1563C17.8788 27.1271 17.8119 27.0803 17.7588 27.0197L14.9642 23.8297C14.681 23.5065 14.9105 23.0002 15.3403 23.0002L29.8972 23.0002C30.327 23.0002 30.5565 23.5065 30.2733 23.8297L27.4787 27.0197C27.4256 27.0803 27.3587 27.1271 27.2837 27.1563L22.7998 28.8984Z" fill="#F7559E"/>
<path d="M15.8769 23C17.5011 23 17.7199 25.3511 16.1234 25.6507L4.23698 27.0703C3.04684 27.2124 1.99981 26.283 1.99981 25.0844V25C1.99981 23.8954 2.89524 23 3.99981 23L15.8769 23Z" fill="#F7559E"/>
</svg>
